<?xml version="1.0" encoding="UTF-8"?>
<svg xmlns="http://www.w3.org/2000/svg" viewBox="0 0 644.88 96.38">
  <defs>
    <style>
      .cls-1 {
        fill: #384948;
      }

      .cls-2 {
        isolation: isolate;
      }

      .cls-3 {
        mix-blend-mode: multiply;
      }

      .cls-4 {
        fill: #a6ccc8;
      }
    </style>
  </defs>
  <g class="cls-2">
    <g id="Layer_2" data-name="Layer 2">
      <g id="Layer_1-2" data-name="Layer 1">
        <g>
          <path class="cls-1" d="M.25,94.15c-.06-.66-.12-1.08-.12-1.51,0-2.87,0-5.73,0-8.6-.01-6.67.04-13.34-.07-20-.05-3.03.08-6.05.07-9.08-.02-3.36-.05-6.72-.05-10.08,0-3.64.02-7.27.01-10.91-.01-4.74.11-9.47-.05-14.21-.08-2.2,0-4.41,0-6.61,0-.27.03-.55.07-.82.09-.49.4-.78.89-.85.33-.04.66-.05.99-.05,3.69.03,7.39.07,11.08.08,5.35.02,10.7.01,16.05.03,1.49,0,2.98.09,4.46.1,2.09,0,4.19-.05,6.28-.04,2.2,0,4.41.08,6.61.07,2.7-.01,5.4-.1,8.1-.11,3.92-.01,7.83.03,11.75.02,3.86-.01,7.72-.06,11.58-.09.22,0,.44-.03.66-.02.79.03,1.1.29,1.2,1.07.06.49.08.99.08,1.49.01,4.02.03,8.05.02,12.07,0,.6-.1,1.21-.16,1.81-.08.77-.16,1.53-.24,2.29-.03.33-.01.67-.11.98-.54,1.76-.63,3.57-.73,5.39,0,.17,0,.33-.03.49-.07.43-.31.71-.75.76-.44.05-.88.06-1.32.06-5.46-.02-10.92-.05-16.37-.06-4.24,0-8.49.04-12.73.03-2.81-.01-5.62-.11-8.43-.15-1.65-.02-3.31,0-4.96.01-.27,0-.55.05-.82.09-1.54.18-1.61.25-1.64,1.85-.02,1.05-.04,7.1,0,8.14.05.99.44,1.37,1.43,1.47.55.05,1.1.05,1.65.05,4.35-.02,8.71-.06,13.06-.06,4.41,0,8.82.02,13.23.02,2.04,0,4.08-.02,6.12,0,2.29.02,2.74.43,2.77,2.69.04,3.03.01,6.06.02,9.09,0,1.32.03,2.65.06,3.97.03,1.69-.27,2.02-2,2.03-1.38,0-2.76-.01-4.13-.03-3.25-.04-6.5-.11-9.75-.13-1.38-.01-2.76.08-4.13.07-1.82,0-3.64-.07-5.46-.08-3.58-.03-7.17-.05-10.75-.05-1.96,0-2.14.2-2.15,2.2-.01,3.09-.03,1.17-.03,4.26,0,6.45.02,12.89.03,19.34,0,.05,0,.11,0,.17-.02,1.36-.12,1.48-1.53,1.49-1.54.01-3.09-.04-4.63-.06-.94,0-1.87,0-2.81,0-2.59-.02-5.18-.06-7.77-.06-3.69-.01-7.39,0-11.08,0-1.1,0-2.19,0-3.48,0Z"/>
          <path class="cls-1" d="M115.04,32.45c.02.38.04.77.03,1.18,0,.29-.07.54-.16.74-.01,3.38-.02,6.9-.03,10.65,0,2.19,0,4.38,0,6.57,0,2.38,0,4.76,0,7.13,0,4.42-.02,8.84-.04,13.26,0,2.75-.02,5.5-.03,8.26,0,1.4,0,2.79,0,4.19,0,1.47,0,2.94,0,4.42v.18c0,.46,0,.98-.1,1.52-.29,1.63-1.38,2.61-3.06,2.75-.28.02-.55.03-.8.03-.1,0-.2,0-.3,0-1.32-.01-2.63-.02-3.94-.04-2.36-.02-4.71-.05-7.07-.06-.97,0-1.93,0-2.9,0-.84,0-1.68,0-2.52,0-.5,0-1.09-.01-1.69-.12-1.33-.23-2.21-1.15-2.41-2.53-.05-.32-.05-.62-.05-.87,0-2.39.01-4.78.02-7.17l.02-4.23c0-1.46.01-2.92.02-4.38.02-3.82.03-7.64.05-11.46v-4.17s.01-1.83.01-1.83h.03c-.01-.28-.02-.56-.02-.85,0-1.84.01-3.71.03-5.52v-.4c.02-1.42.04-2.84.05-4.27.04-3.14.09-6.39.06-9.57-.01-1.14,0-2.29,0-3.4.01-1.34.02-2.72,0-4.07-.05-2.47-.03-2.63.01-2.93.01-.1.04-.31.02-2.46,0-.64,0-1.27,0-1.91,0-.73.02-1.49,0-2.22,0-.37-.06-.78-.11-1.21-.03-.24-.06-.47-.08-.71,0-.07-.02-.14-.03-.21-.04-.28-.08-.63-.05-1.02.06-.71.14-1.41.22-2.09l.04-.35c.22-1.85,1.55-2.25,2.32-2.33.77-.08,1.54-.1,2.28-.13l.75-.03c1.6-.06,3.25-.12,4.88-.16,1.12-.03,2.25-.05,3.37-.06,1.11-.02,2.22-.04,3.33-.06.76-.02,1.53-.05,2.29-.09.51-.02,1.01-.05,1.52-.07.38-.01.84-.02,1.31.02,1.32.11,2.57.54,2.7,2.89.23,4.01.12,7.96-.03,11.62-.01.27-.01.54-.01.81,0,.14,0,.28,0,.42v1.26c-.02.54-.02,1.08-.03,1.62l.02,1.32c0,.44.02.98.03,1.51,0,.09,0,.17.01.26,0,.12.01.24.02.36Z"/>
          <path class="cls-1" d="M195.83,92.45c-.38.51-.97.83-1.68.88-1.05.08-2.13.12-3.21.11-1.25-.01-2.51-.04-3.74-.07-1.18-.03-2.36-.05-3.54-.07-1.35-.02-2.7-.02-4.05-.03-1.35,0-2.7,0-4.05-.03-1.99-.02-2.86-.65-3.58-2.57-.06-.17-.11-.33-.16-.49-2.67,1.88-5.38,3.68-7.2,4.12-3.43.84-6.83.92-10.01.93h-.09c-2.52,0-5.05-.37-7.42-.77-2.63-.45-5.02-1.04-7.3-1.8-1.25-.42-2.45-.98-3.67-1.72-2.58-1.56-4.41-3.19-5.76-5.12-.42-.6-.86-1.26-1.22-1.99-1.01-2.06-2.15-4.4-2.45-7.04,0-.06-.02-.13-.03-.19-.04-.22-.09-.52-.07-.86l.02-.49c.13-3.13.26-6.37,1.31-9.53.61-1.84,1.72-3.3,2.61-4.37,2.35-2.8,6.68-5.39,9.74-6.49,1.57-.57,4.65-1.43,4.48-1.42-.28,0,9.92-1.33,9.78-1.11.58-.02,1.16-.05,1.73-.09,2.47-.18,4.95-.18,7.35-.17,1.07,0,2.18,0,3.27-.01,1.26-.02,2.53-.18,3.88-.36h.03c-.35-1.77-1.27-3-2.82-3.75-1.37-.67-2.84-1-4.48-1.02-.38,0-.75,0-1.12,0-1.12,0-2.17.03-3.2.15-.77.09-1.56.3-2.4.51l-.07.02c-.82.21-1.4.05-1.81,1.87,0,.04-.01.09,0,.14,0,0,0,0,0,0,.03.27-.18.51-.46.52-10.4.27-22.4-.1-25.08.02l-.02-.42c-.06-1.25-.14-1.94.25-3.37.08-.28.13-.6.18-.94.43-2.62,1.47-5.18,3.11-7.62,1.59-2.36,3.63-4.42,6.07-6.12,1.31-.91,2.67-1.54,3.83-2.04,3.65-1.56,7.64-2.49,12.56-2.93,2.66-.24,5.32-.22,7.89-.19.71,0,1.41.01,2.12.01.85,0,1.68.09,2.47.18h.11c2.04.23,4.11.47,6.13.71,2.6.31,5.29.96,8.48,2.04,2.53.86,4.8,2.27,6.73,4.18l.3.3c.71.7,1.45,1.42,2.06,2.29,1.83,2.57,2.92,5.08,3.34,7.69.21,1.32.31,2.69.3,4.43,0,1.96.01,3.96.02,5.9,0,1.27.02,2.54.02,3.8,0,1.95,0,3.9,0,5.84v1.98s.1,0,.1,0l-.05,5.7c-.03,3.37-.06,6.74-.09,10.12,0,.92,0,1.49,0,2.03,0,.67,0,1.29-.01,2.42-.01,1.03.13,1.94.43,2.78.2.56.34,1.12.45,1.59.21.94-.07,1.58-.34,1.95ZM170.92,70.52c-.2-.17-.34-.4-.55-.58-.37-.32-.8-.58-1.2-.88-.66-.5-1.61-.76-2.38-1.04-.42-.16-.95-.28-1.4-.36-.19-.03-.4.05-.6.02-.25-.04-.44-.18-.7-.22-.9-.13-1.93,0-2.83,0s-1.77-.01-2.64.19-1.67.52-2.33,1.05c-.29.23-.62.3-.9.49-.75.5-1.97,1.52-2.05,2.5-.07.85.43,2.31,1.09,2.83.4.32.92.43,1.43.43,1.56,0,3.25.21,5.36.23.51,0,1.07-.07,1.66-.16.23-.03.47-.07.7-.1l.43-.05c2.17-.27,4.21-.52,6.12-1.28.34-.13.55-.23.69-.3.15-.08.14-.63.15-.76.03-.23.06-.48.08-.71.02-.19-.02-.39.02-.58s.11-.37.12-.57c-.11-.04-.2-.09-.28-.16Z"/>
          <path class="cls-1" d="M290.16,91.83l-1.4.78c-.06.03-.11.07-.16.1-.23.15-.58.38-1.06.46-.52.09-1.09.14-1.72.15-.89,0-1.78.01-2.67.01-1.06,0-2.13,0-3.19.02-.48,0-.96,0-1.44,0-1.84,0-3.68-.04-5.48-.08-2.76-.06-5.62-.13-8.4-.04-.42.01-.81,0-1.15-.03-1.24-.09-2.27-.68-2.98-1.69-.25-.36-.5-.73-.75-1.1-.21-.31-.42-.62-.63-.93l-2.22-3.21c-2.43-3.52-4.94-7.17-7.43-10.74-1.37-1.98-2.79-3.98-4.17-5.91l-1-1.41c-.19-.27-.37-.55-.53-.81-.33-.52-.61-.96-.97-1.28-.03-.02-.05-.04-.07-.06-.59.4-1.17.85-1.7,1.27-1.86,1.48-3.74,3-5.33,4.29-.1.08-.21.19-.33.3-.15.15-.33.31-.53.47-.35.28-.54.58-.53,1.29.02,1.23-.02,2.45-.07,3.64-.02.6-.05,1.21-.06,1.81,0,.4,0,.81.03,1.25v.25s.02.05.02.08c.03.19.09.47.05.81-.12,1.31-.07,2.63,0,4.03.05,1.16.1,2.35.05,3.57,0,.08,0,.16,0,.23,0,.21-.01.44-.04.69-.21,1.84-1.13,2.74-2.97,2.92-.41.04-.8.04-1.17.05-.14,0-.27,0-.41,0l-4.74.12c-.07,0-.14.01-.22,0l-2.25-.02c-1.74-.02-3.49-.04-5.23-.05-.38,0-.75,0-1.13.02-.43.01-.87.02-1.33.02-1.24-.01-2.24-.04-3.17-.1-1.27-.07-2.2-.94-2.35-2.22-.07-.57-.15-1.33-.17-2.11-.04-1.68-.05-3.04-.04-4.29.01-1.12.03-2.23.06-3.35.03-1.25.05-2.55.06-3.82.02-3.27.04-6.54.05-9.8.01-2.61.02-5.23.04-7.84.01-2.4.04-4.79.06-7.19.02-1.91.03-3.81.05-5.71,0-1.01,0-2.01.01-3.02,0-1.12,0-2.23.01-3.35,0-.48.02-.97.04-1.45.02-.51.04-.99.04-1.48,0-.7,0-1.41-.02-2.11-.01-.65-.02-1.31-.02-1.96,0-1.16.02-2.33.03-3.46v-.77c0-.15,0-.3,0-.45-.03-.67-.05-1.36-.05-2.06,0-1.19.03-2.4.05-3.57.02-1.29.04-2.63.05-3.94,0-1.62-.05-3.22-.12-5.14-.04-.96-.02-2.04.73-2.8.75-.77,1.74-.75,2.69-.73,4.14.07,8.34.12,12.41.17l2.41.03c1.17.02,2.38.04,3.56,0,.95-.03,1.72.23,2.28.77.57.55.85,1.32.85,2.3v3.69c0,2.2,0,4.4,0,6.6v.75s0,.04,0,.06c0,.69.01,1.38.02,2.07.03,2.72.06,5.54-.03,8.32-.03.97-.02,1.97,0,2.94.02,1.45.03,2.95-.08,4.46-.08,1.02-.02,2.07.04,3.19.39-.3.78-.62,1.16-.92.31-.24.61-.49.92-.73.95-.75,1.9-1.49,2.85-2.23,1.97-1.54,4.01-3.14,6-4.72,3.48-2.78,6.88-5.56,9.74-7.91.98-.8,2.07-1.21,3.25-1.21h.3c.18,0,.36,0,.54,0l2.01.03c2.38.03,4.75.06,7.13.1,1.8.03,3.6.06,5.39.09,1.85.03,3.7.06,5.55.09.86.01,1.73.02,2.59.02.49,0,.99,0,1.48.01.05,0,.11,0,.17,0,.25,0,.6-.01.98.07.34.08,1.26.28,1.72,1.1.26.45.7,1.63-.73,2.77l-.04.04c-.82.66-1.64,1.33-2.47,1.99l-1.6,1.29c-.61.49-1.21.98-1.81,1.47-1.09.88-2.18,1.76-3.27,2.64-2.49,1.99-5.15,4.13-7.79,6.22-1.36,1.08-2.73,2.15-4.1,3.23l-1.91,1.5c-.31.25-.46.41-.54.5.05.11.16.31.4.65.92,1.31,1.88,2.64,2.81,3.92.71.99,1.43,1.97,2.13,2.97.66.94,1.32,1.89,1.96,2.82.53.76,1.05,1.53,1.59,2.29,1.3,1.86,2.61,3.71,3.92,5.56.86,1.21,1.71,2.43,2.57,3.64,1.98,2.8,3.95,5.61,5.92,8.41,1.91,2.72,3.81,5.43,5.72,8.15.16.22.27.44.38.65.04.08.09.17.14.26l.78,1.4Z"/>
          <path class="cls-1" d="M363.88,74.24c-.71,2.96-1.81,4.44-3.36,6.58-1.03,1.42-2.21,2.85-3.62,4.36-1,1.08-2.08,1.88-3.31,2.46-.38.18-.77.44-1.19.71-.28.18-.57.38-.87.56-.3.18-.6.36-.9.54-.83.51-1.69,1.04-2.64,1.45l-.2.09c-2.59,1.13-5.27,2.31-8.24,2.79-.32.05-.65.13-1,.22-.32.08-.65.16-1,.23h-.07c-1.76.35-3.58.69-5.5.69-.89,0-1.78.08-2.72.16-.51.04-1.01.09-1.52.12-.36.02-.76.04-1.19.04-.75,0-1.6-.06-2.46-.25-.28-.06-.63-.08-1-.09-.24,0-.48-.02-.71-.04-2.02-.16-4.4-.44-6.7-1.23l-1.11-.38c-.89-.3-1.81-.62-2.72-.94-.22-.08-.45-.16-.67-.23-.91-.32-1.85-.64-2.77-1.07-1.51-.7-2.98-1.64-4.51-2.87-1.35-1.08-2.67-2.31-4.05-3.76-2.62-2.77-4.64-5.5-6.16-8.35-.63-1.18-1.16-2.42-1.55-3.67-1.15-3.64-1.8-7.46-1.92-11.36-.04-1.31-.03-2.86.34-4.42.1-.44.16-.8.17-1.12.06-1.84.43-3.65,1.13-5.53.06-.17.12-.33.19-.5.18-.5.37-1.01.59-1.52.43-1,.93-2.15,1.49-3.29,1.09-2.24,2.37-4.25,3.91-6.13,1.76-2.15,3.85-3.75,5.86-5.16,2.24-1.58,4.68-2.9,7.26-3.92,2.26-.9,4.58-1.44,6.83-1.96.64-.15,1.28-.3,1.91-.45l.17-.04h.17c.86-.03,1.77-.13,2.64-.22,1.58-.17,3.21-.35,4.8-.12h.52c.29,0,.52,0,.74,0,3.15-.04,5.91.33,8.45,1.14.44.14.89.26,1.37.38.42.11.83.22,1.25.34,2.6.78,4.95,2.01,7.23,3.2.51.26,1.01.53,1.52.79.73.37,1.36.88,1.91,1.33l.2.16c.81.65,1.61,1.34,2.38,2l.4.34c.28.24.63.55.92.97.58.85,1.31,1.6,2.08,2.4.29.3.58.6.86.9l.09.1c.34.36.8.85,1.01,1.54.16.5.47,1,.8,1.54.27.43.54.87.78,1.37.02.04.04.07.07.11.12.18.29.45.4.8.21.69.45,1.39.68,2.07.8,2.36,1.63,4.79,1.81,7.46.05.76.12,1.55.19,2.31.08.93.17,1.89.23,2.84.07,1.19.07.73.08,1.89v.4c0,.47-.1.89-.18,1.23l-.02.09c-.32,1.31-1.32,2.15-2.61,2.19-.33,0-.67.04-1.02.07-.79.07-1.69.14-2.64,0-.77-.12-1.64-.07-2.38-.02-1.64.13-3.25.07-4.82,0-1.15-.05-2.23-.09-3.32-.06-1.23.03-2.48.02-3.68.02-.4,0-.8,0-1.2,0-2.4,0-4.8-.01-7.2-.02l-8.34-.02c-3.21,0-6.42-.02-9.62-.04-.36,0-.72-.04-1.03-.07-.22-.02-.43-.05-.62-.05h-.08c-.44-.02-.87-.03-1.28-.03.51,1.67,1.42,4.65,2.77,5.71,1.05.83,2.23,1.47,3.48,2.15.28.15.55.3.83.45.06.03.15.07.28.09.32.06.63.12.94.18,2.51.49,4.87.95,7.26.76,2.44-.19,5.01-.47,7.3-1.53.68-.31,1.39-.54,2.1-.8.17-.06.34-.13.49-.22.18-.11.3-.26.41-.44.32-.49.7-1,1.22-1.27.14-.07.23-.1.38-.11.27-.02.53-.09.8-.09.39,0,.78,0,1.17,0h1.32c.28,0,.57-.01.85,0,.25,0,.48.08.73.1,1.18.06,2.38,0,3.56,0,2.02,0,4.04,0,6.06,0,.41,0,.79.09,1.19.09s.82-.01,1.22,0c.25,0,.48.09.73.1.34.01.66,0,1,.04.54.06,1.07.05,1.61.05h1.18c.37,0,.68-.07.93.25.15.19.24.48.4.7.38.51.16,1.21.02,1.77ZM314.64,51.83c.27.11.72,0,1.01,0,.33-.02.67-.03,1.02-.03,0,0,14.88.13,14.88.13,1.08,0,2.16,0,3.25,0,.54,0,1.08,0,1.62,0s1.07.05,1.58,0c-.1-.27-.02-.54.04-.81.08-.36-.05-.66-.04-1.01,0-.14.05-.4,0-.52-.03-.08-.14-.12-.18-.21-.05-.1-.05-.14-.06-.25-.02-.2-.15-.31-.24-.49-.06-.13-.15-.28-.24-.4-.24-.32-.45-.63-.75-.9-.49-.44-1.17-.71-1.75-.99l-.29-.15c-.65-.32-1.21-.6-1.79-.69-.42-.07-.83-.14-1.25-.21-1.55-.27-3.02-.52-4.48-.43-.37.02-.69-.03-.93-.06h-.06c-1.3-.2-2.73-.12-4.36.25-.82.18-1.62.43-2.41.71-.28.1-.52.27-.81.38-.34.12-.67.28-.93.54-.1.09-.21.09-.31.18-.11.1-.11.13-.24.21-.27.15-.42.39-.65.57-.26.21-.45.46-.69.7-.12.11-.15.13-.21.28-.2.51-.44.98-.48,1.54-.01.16,0,.33-.02.49,0,.11-.02.21-.04.32-.05.28-.25.62-.19.89Z"/>
          <path class="cls-1" d="M404.02,54.67c.21-3.3.06-5.94.72-8.52.67-2.6,1.07-5.27,2.13-7.75,1.28-3,2.88-5.82,4.89-8.42,1.83-2.35,3.84-4.53,5.99-6.58.41-.39.87-.74,1.31-1.1.66-.55,1.32-1.09,1.98-1.63.27-.22.53-.44.81-.62,1.07-.66,2.13-1.33,3.22-1.95,1.54-.87,3.13-1.65,4.64-2.57,3.23-1.96,6.86-2.81,10.4-3.9,1.47-.45,2.98-.8,4.5-1.05,1.57-.26,3.18-.35,4.77-.51.4-.04.82.04,1.2-.06,1.73-.46,3.52-.4,5.28-.55,1.13-.1,2.28-.01,3.43.02,1.2.04,2.4.13,3.6.16,2.69.07,5.37.16,8.01.75.89.2,1.82.21,2.72.35,2.72.42,5.34,1.22,7.9,2.24,2.17.86,4.41,1.6,6.45,2.76,1.74.98,3.53,1.89,5.2,2.98,2.2,1.44,4.31,2.99,6.26,4.76,1.71,1.54,3.16,3.3,4.69,5,.57.63,1,1.39,1.47,2.1,1.85,2.82,3.75,5.6,4.92,8.81.49,1.35,1.03,2.67,1.12,4.12.01.23.03.46.11.67.75,2.02.69,4.15.89,6.25.35,3.8-.18,7.49-.94,11.21-.83,4.09-2.41,7.83-4.45,11.44-1.13,1.99-2.15,4.05-3.69,5.75-2.11,2.32-4.03,4.84-6.6,6.7-1.39,1-2.85,1.9-4.26,2.87-1.95,1.33-4.09,2.28-6.22,3.26-1.24.57-2.48,1.16-3.73,1.72-.36.16-.75.28-1.14.36-3.08.61-6.17,1.23-9.26,1.78-2.48.44-4.99.59-7.51.67-1.71.06-3.42.16-5.13.02-.96-.08-1.94.07-2.9.13-.23.01-.46.06-.68.05-1.94-.1-3.88-.18-5.82-.32-1.08-.08-2.16-.23-3.23-.37-.79-.11-1.58-.25-2.37-.39-.39-.07-.79-.22-1.18-.22-2.91,0-5.63-.89-8.38-1.68-3.63-1.04-7.14-2.39-10.49-4.14-.91-.47-1.75-1.08-2.61-1.65-1.38-.91-2.82-1.75-4.11-2.78-1.28-1.02-2.58-2.01-3.64-3.35-1.31-1.65-2.62-3.31-3.92-4.97-2.3-2.92-3.79-6.24-4.65-9.84-.48-2-.99-4-1.26-6.03-.29-2.2-.33-4.44-.43-5.99ZM457.49,36.39c-1.84-.08-3.66,0-5.44.55-1.36.42-2.79.68-4.11,1.2-2.12.83-4.24,1.68-5.9,3.38-2.21,2.27-3.83,4.82-4.37,7.98-.19,1.12-.47,2.25-.49,3.39-.04,2.14.51,4.17,1.52,6.08.73,1.38,1.59,2.64,2.8,3.65,2.34,1.95,4.82,3.66,7.8,4.53.77.22,1.51.54,2.28.74,1.16.29,2.32.63,3.51.75,3.04.31,6.06,0,9.04-.55,3.97-.73,7.52-2.3,10.3-5.35.27-.3.59-.55.84-.85.44-.52.89-1.04,1.25-1.61,1.2-1.91,1.88-3.99,2.36-6.2.6-2.75.26-5.35-.68-7.9-.57-1.55-1.32-3.05-2.67-4.12-.49-.39-1-.76-1.5-1.14-2.07-1.59-4.36-2.69-6.9-3.3-3.18-.76-6.41-1.1-9.67-1.22Z"/>
          <path class="cls-1" d="M566.39,33.96c.77.06,1.53.11,2.29-.08,1.13-.28,2.21-.18,3.36-.25.04-2.32.04-9.67.04-11.69,0-1.56.26-3.02.54-4.37.6-2.89,1.76-5.66,3.55-8.45,1.31-2.04,3.23-3.72,5.87-5.12.13-.07.27-.13.41-.19.09-.04.18-.08.22-.1,1.1-.66,2.25-1,3.32-1.29.78-.21,1.62-.27,2.38-.55.26-.1.51-.22.77-.31.88-.29,1.88-.31,2.8-.46.36-.06.71,0,1.07-.02s.71-.1,1.07-.14c.68-.07,1.37-.24,2.05-.26,1.16-.03,2.31-.26,3.48-.25,1.09,0,2.12,0,3.18-.2.49-.1.98-.06,1.47-.08.08-.25.68-.11.88-.11.26,0,.56-.04.81.03s.54.21.78.33c.21.1.42.1.62.19.43.19.68.7.89,1.09.28.53.18,1.15.18,1.74v1.55c0,.26.03.53,0,.78-.03.28-.13.51-.14.8-.02,1.02-.11,2.03-.12,3.05,0,.37.11.71.11,1.08,0,.54,0,1.07-.01,1.61-.02,2.1-.05,4.21-.07,6.31-.02,2.2-.73,3.01-2.93,3.33-.26.04-.51.06-.75.08l-1.67.13c-1.05.08-2.1.17-3.15.26-.69.06-1.4.28-2.32.71-.46.21-.72.54-.83,1.05-.21.93-.28,6.74-.21,7.49.06.74.1,1.47.14,2.19v.05c.18,0,.36.01.56.01.9.01,1.81.02,2.71.02h1.75c.32.01.65.02,1,.04,1.56.13,2.38.94,2.52,2.48.04.47.05.93.05,1.4v1.45c0,1.7.01,3.45-.01,5.18,0,.57-.05,1.13-.1,1.67-.03.35-.06.7-.08,1.05-.02.37,0,.75,0,1.16v.29c.02.37.03.75.05,1.12.03.78.06,1.58.05,2.4-.02,1.71-1.01,2.75-2.71,2.86-.5.03-.99.02-1.45,0-.23,0-.46-.01-.69-.01-.34,0-.68,0-1.02,0-.93,0-1.8,0-2.69.03-.03,0-.05,0-.07,0,0,.04,0,.09,0,.14-.06,1.2-.08,2.26-.08,3.23,0,3.24,0,1.47,0,4.71,0,2.16,0,4.33,0,6.49,0,4,0,8.01-.01,12.01,0,1.98-.17,3.97-.13,5.94.04,1.55.51,3.38-.18,4.86-.1.2-.18.43-.29.62-.43.69-1.25.66-1.97.67-.79.02-1.56.1-2.35.15-.83.05-1.64.12-2.47.12h-1.6c-2,0-3.95-.26-5.95-.26-.41,0-.83,0-1.24,0-.54,0-1.02.05-1.55.12-1.16.14-2.31.27-3.48.27-.86,0-1.64-.22-2.41-.53-.53-.21-.58-.89-.58-1.41,0-.28.06-.63-.01-.89s-.12-.43-.12-.72c0-.14.04-.33,0-.46-.06-.23-.15-.3-.14-.57,0-.2,0-.41.04-.61.12-.99.14-1.96.14-2.95v-2.76c.02-2.28.03-4.56.03-6.83,0-2.34,0-4.68,0-7.01,0-2.75,0-5.5,0-8.25,0-1.55.18-3.09.18-4.63,0-.21.03-.44,0-.66s-.11-.39-.14-.6c-.1-.85,0,3.23,0,2.37v-1.33c0-.21,0-.43,0-.64,0-.33,0-.3-.27-.45-.31-.18-.52-.16-.91-.16-.43,0-.86,0-1.29,0s-.87.03-1.29,0c-.18-.01-.22-.06-.39-.1-.27-.07-.58-.03-.87-.03-.62,0-1.22-.2-1.85-.14-.33.03-.62.13-.95.14-.47.01-.95,0-1.43,0-.63,0-1.26,0-1.89,0-.76,0-1.54.15-2.3.23-2.12.25-4.23-.15-6.33-.03-.03,0-.05,0-.07,0,0,.04,0,.09,0,.14-.06,1.2-.08,2.26-.08,3.23,0,3.24,0,1.47,0,4.71,0,2.16,0,4.33,0,6.49,0,4,0,8.01-.01,12.01v1.05c0,2.2-.01,4.41-.02,6.61,0,.34,0,.73-.06,1.14-.2,1.55-1.07,2.37-2.67,2.5-1.84.15-3.64.27-5.47.08-.05,0-.2.01-.31.02-.17.02-.39.04-.63.04-.2,0-.4,0-.6,0-.76,0-1.54,0-2.34-.06-.85-.07-1.75-.12-2.6.02-.59.1-1.16.1-1.66.1h-.16c-.46,0-.93,0-1.39,0-1.14,0-2.27,0-3.36-.02-.48,0-.94-.05-1.39-.14-1.14-.23-1.87-1.1-1.9-2.29v-.15c-.02-.42-.03-.94.09-1.49.17-.78.17-1.64.17-2.54,0-.19,0-.38,0-.57v-2.76c.02-2.28.03-4.56.03-6.83,0-2.34,0-4.68,0-7.01,0-2.75,0-5.5,0-8.25,0-1.86.01-3.72.02-5.58,0-1.44.02,2.11.02.67v-.09c0-.37,0-.72-.03-1.04-1.27-.08-2.55-.11-3.86-.14-.04,0-.09,0-.13,0-.41.03-1.27.1-2.16-.58l-.57-.44-.04-.72c0-.12-.02-.25-.03-.37-.02-.3-.04-.61-.05-.94l-.04-2.08c-.04-2.26-.09-4.6-.1-6.91,0-.99.03-1.98.07-2.94.02-.56.04-1.11.06-1.67,0-.26,0-.51,0-.77,0-.37-.02-.75,0-1.16.02-.41.11-.75.18-1.03.02-.08.04-.16.06-.23l.18-.86.83-.29c.91-.32,1.73-.31,2.39-.29.18,0,.35,0,.52,0,.42-.01.84,0,1.24,0,.52,0,1,.01,1.48-.02.04-2.32.04-9.67.04-11.69,0-1.56.26-3.02.54-4.37.6-2.89,1.76-5.66,3.55-8.45,1.31-2.04,3.23-3.72,5.87-5.12.13-.07.27-.13.41-.19.09-.04.18-.08.22-.1,1.1-.66,2.25-1,3.32-1.29,1.59-.43,3.19-.69,4.74-.95.96-.16,1.95-.33,2.91-.52,1.59-.33,3.14-.29,4.63-.25.4.01.8.02,1.2.02,1.38.01,2.76.1,4.1.19.55.04,1.09.07,1.64.1.26.02.57.04.9.12,1.15.27,1.94,1.12,2.1,2.28.06.45.09.92.09,1.49-.03,4.56-.06,9.13-.1,13.69-.02,2.2-.73,3.01-2.93,3.33-.26.04-.51.06-.75.08l-1.67.13c-1.05.08-2.1.17-3.15.26-.69.06-1.4.28-2.32.71-.46.21-.72.54-.83,1.05-.21.93-.28,6.74-.21,7.49.06.74.1,1.47.14,2.19v.05c.18,0,.36.01.56.01,1.06.01,2.11-.04,3.17-.01.97.02,1.94.24,2.91.27.54.02,1.04,0,1.56-.11s1.05-.03,1.56-.03.96-.07,1.46-.14,1.07,0,1.58,0c.42,0,.84.04,1.27.07Z"/>
          <g class="cls-3">
            <path class="cls-4" d="M616.72,83.69c.05-.85.01-1.54.19-2.21.17-.67.28-1.37.55-2.01.33-.78.74-1.51,1.27-2.18.47-.61,1-1.17,1.55-1.7.11-.1.23-.19.34-.29.17-.14.34-.28.51-.42.07-.06.14-.11.21-.16.28-.17.55-.35.83-.51.4-.23.81-.43,1.2-.66.84-.51,1.78-.73,2.69-1.01.38-.12.77-.21,1.17-.27.41-.07.82-.09,1.23-.13.1,0,.21.01.31-.02.45-.12.91-.1,1.37-.14.29-.03.59,0,.89,0,.31,0,.62.03.93.04.7.02,1.39.04,2.07.19.23.05.47.05.7.09.71.11,1.38.32,2.05.58.56.22,1.14.41,1.67.71.45.25.91.49,1.35.77.57.37,1.12.78,1.62,1.23.44.4.82.85,1.21,1.29.15.16.26.36.38.54.48.73.97,1.45,1.27,2.28.13.35.27.69.29,1.07,0,.06,0,.12.03.17.19.52.18,1.08.23,1.62.09.98-.05,1.94-.24,2.9-.21,1.06-.62,2.03-1.15,2.96-.29.52-.56,1.05-.96,1.49-.55.6-1.04,1.25-1.71,1.74-.36.26-.74.49-1.1.74-.5.34-1.06.59-1.61.84-.32.15-.64.3-.97.44-.09.04-.19.07-.29.09-.8.16-1.6.32-2.4.46-.64.11-1.29.15-1.95.17-.44.01-.88.04-1.33,0-.25-.02-.5.02-.75.03-.06,0-.12.02-.18.01-.5-.03-1-.05-1.51-.08-.28-.02-.56-.06-.84-.1-.21-.03-.41-.07-.61-.1-.1-.02-.2-.06-.31-.06-.75,0-1.46-.23-2.17-.43-.94-.27-1.85-.62-2.72-1.07-.24-.12-.45-.28-.67-.43-.36-.24-.73-.45-1.06-.72-.33-.26-.67-.52-.94-.87-.34-.43-.68-.86-1.02-1.29-.6-.76-.98-1.62-1.21-2.55-.12-.52-.26-1.04-.33-1.56-.08-.57-.09-1.15-.11-1.55Z"/>
          </g>
        </g>
      </g>
    </g>
  </g>
</svg>